<svg id="MPS" xmlns="http://www.w3.org/2000/svg" xml:space="preserve" width="100%" height="100%" version="1.1" viewBox="0 0 16000 9000">
						<path d="M5788 4574l84 0 0 -316 169 182 169 -182 0 316 84 0 0 -520 -253 269 -253 -269 0 520zm980 -328l0 328 84 0 0 -520 -351 333 0 -328 -84 0 0 520 351 -333zm207 328l84 0 0 -221 255 0 0 221 84 0 0 -515 -84 0 0 213 -255 0 0 -213 -84 0 0 515zm780 5c73,0 135,-25 182,-74l-54 -60c-32,34 -78,55 -128,55 -101,0 -177,-81 -177,-184 0,-102 76,-183 177,-183 50,0 96,21 128,55l54 -60c-47,-49 -109,-74 -182,-74 -145,0 -263,114 -263,262 0,149 118,263 263,263zm267 -5l84 0 0 -243 229 243 109 0 -240 -255 218 -260 -100 0 -216 259 0 -259 -84 0 0 515zm889 0l0 -515 -406 0 0 515 84 0 0 -433 238 0 0 433 84 0zm123 0l84 0 0 -187 69 0c107,0 180,-68 180,-164 0,-96 -73,-164 -180,-164l-153 0 0 515zm84 -265l0 -171 66 0c61,0 98,33 98,85 0,52 -37,86 -98,86l-66 0zm570 191c-102,0 -178,-81 -178,-184 0,-102 76,-183 178,-183 101,0 177,81 177,183 0,103 -76,184 -177,184zm0 79c146,0 263,-114 263,-263 0,-148 -117,-262 -263,-262 -146,0 -263,114 -263,262 0,149 117,263 263,263zm357 -5l84 0 0 -316 169 182 168 -182 0 316 84 0 0 -520 -252 269 -253 -269 0 520zm862 5c73,0 135,-25 182,-74l-54 -60c-32,34 -78,55 -128,55 -101,0 -177,-81 -177,-184 0,-102 76,-183 177,-183 50,0 96,21 128,55l54 -60c-47,-49 -109,-74 -182,-74 -145,0 -263,114 -263,262 0,149 118,263 263,263zm363 -5l84 0 0 -432 133 0 0 -83 -349 0 0 83 132 0 0 432zm293 0l84 0 0 -187 70 0c106,0 179,-68 179,-164 0,-96 -73,-164 -179,-164l-154 0 0 515zm84 -265l0 -171 66 0c62,0 98,33 98,85 0,52 -36,86 -98,86l-66 0zm570 191c-101,0 -177,-81 -177,-184 0,-102 76,-183 177,-183 102,0 178,81 178,183 0,103 -76,184 -178,184zm0 79c147,0 263,-114 263,-263 0,-148 -116,-262 -263,-262 -145,0 -263,114 -263,262 0,149 118,263 263,263zm643 -667c-1,41 -21,63 -56,63 -35,0 -55,-22 -56,-63l-66 0c2,78 52,118 122,118 70,0 119,-40 121,-118l-65 0zm65 334l0 328 84 0 0 -520 -351 333 0 -328 -84 0 0 520 351 -333z"/>
						<path d="M5904 5017c32,0 58,-13 77,-33l-30 -31c-11,12 -26,21 -47,21 -34,0 -59,-26 -59,-61 0,-35 25,-60 59,-60 21,0 36,8 47,21l30 -31c-19,-21 -45,-34 -77,-34 -60,0 -104,46 -104,104 0,59 44,104 104,104zm343 -165l0 -39 -156 0 0 39 54 0 0 162 44 0 0 -162 58 0zm171 -39l-44 0 0 275 44 0 0 -91c15,14 34,20 57,20 59,0 100,-47 100,-104 0,-56 -41,-104 -100,-104 -23,0 -42,7 -57,21l0 -17zm0 64c10,-16 28,-26 52,-26 36,0 60,27 60,62 0,36 -24,63 -60,63 -24,0 -42,-10 -52,-26l0 -73zm381 98c-34,0 -58,-26 -58,-62 0,-35 24,-61 58,-61 34,0 59,26 59,61 0,36 -25,62 -59,62zm0 42c60,0 105,-45 105,-104 0,-58 -45,-104 -105,-104 -60,0 -104,46 -104,104 0,59 44,104 104,104zm424 -3l0 -205 -142 124 0 -120 -44 0 0 204 142 -121 0 118 44 0zm282 -162l0 -39 -156 0 0 39 55 0 0 162 44 0 0 -162 57 0zm210 165c36,0 65,-14 82,-35l-29 -32c-11,12 -29,23 -53,23 -30,0 -53,-18 -58,-48l154 0 0 -12c-3,-64 -40,-104 -97,-104 -58,0 -103,46 -103,104 0,59 45,104 104,104zm-4 -167c27,0 46,14 51,41l-104 0c8,-26 29,-41 53,-41zm410 164l-111 -205 -110 205 48 0 63 -116 61 116 49 0zm161 -133l0 -68 -44 0 0 201 83 0c55,0 76,-35 76,-67 0,-32 -21,-66 -76,-66l-39 0zm0 36l40 0c21,0 33,11 33,29 0,19 -12,29 -35,29l-38 0 0 -58zm428 97l0 -201 -44 0 0 79 -95 0 0 -79 -44 0 0 201 44 0 0 -82 95 0 0 82 44 0zm291 0l45 0 0 -201 -45 0 0 15c-14,-12 -32,-19 -54,-19 -59,0 -103,46 -103,104 0,59 44,104 103,104 22,0 40,-6 54,-17l0 14zm-53 -39c-35,0 -59,-26 -59,-62 0,-35 24,-61 59,-61 22,0 42,11 53,27l0 69c-11,16 -31,27 -53,27zm393 39l0 -201 -81 0c-51,0 -75,26 -75,64 0,29 14,51 41,62l-59 75 52 0 55 -70 23 0 0 70 44 0zm-44 -165l0 58 -37 0c-20,0 -33,-9 -33,-28 0,-20 11,-30 33,-30l37 0zm467 126c-35,0 -59,-26 -59,-62 0,-35 24,-61 59,-61 34,0 59,26 59,61 0,36 -25,62 -59,62zm0 42c60,0 104,-45 104,-104 0,-58 -44,-104 -104,-104 -60,0 -104,46 -104,104 0,59 44,104 104,104zm282 -204l-44 0 0 275 44 0 0 -91c15,14 34,20 57,20 59,0 101,-47 101,-104 0,-56 -42,-104 -101,-104 -23,0 -42,7 -57,21l0 -17zm0 64c10,-16 28,-26 52,-26 36,0 60,27 60,62 0,36 -24,63 -60,63 -24,0 -42,-10 -52,-26l0 -73zm416 -25l0 -39 -125 0 0 201 44 0 0 -162 81 0zm262 162l45 0 0 -201 -45 0 0 15c-14,-12 -32,-19 -54,-19 -59,0 -103,46 -103,104 0,59 44,104 103,104 22,0 40,-6 54,-17l0 14zm-53 -39c-34,0 -59,-26 -59,-62 0,-35 25,-61 59,-61 22,0 43,11 53,27l0 69c-10,16 -31,27 -53,27zm429 39l0 -201 -44 0 0 79 -96 0 0 -79 -44 0 0 201 44 0 0 -82 96 0 0 82 44 0zm332 0l0 -205 -141 124 0 -120 -44 0 0 204 141 -121 0 118 44 0zm160 -146c10,-15 24,-22 44,-22 19,0 31,7 31,23 0,17 -17,24 -32,24l-27 0 0 34 29 0c23,0 34,11 34,26 0,15 -11,27 -35,27 -22,0 -37,-9 -48,-26l-32 22c19,29 45,41 81,41 58,0 79,-32 79,-60 0,-19 -9,-38 -29,-48 14,-10 23,-23 23,-41 0,-32 -28,-59 -72,-59 -34,0 -55,13 -74,37l28 22zm396 146l44 0 0 -201 -44 0 0 15c-15,-12 -33,-19 -54,-19 -60,0 -104,46 -104,104 0,59 44,104 104,104 21,0 39,-6 54,-17l0 14zm-54 -39c-34,0 -59,-26 -59,-62 0,-35 25,-61 59,-61 22,0 43,11 54,27l0 69c-11,16 -32,27 -54,27zm423 0l0 -162 -44 0 0 162 -90 0 0 -162 -44 0 0 201 171 0 0 51 40 0 0 -90 -33 0zm346 39l0 -205 -142 124 0 -120 -44 0 0 204 142 -121 0 118 44 0zm295 0l0 -201 -81 0c-51,0 -75,26 -75,64 0,29 14,51 42,62l-60 75 52 0 55 -70 23 0 0 70 44 0zm-44 -165l0 58 -37 0c-20,0 -33,-9 -33,-28 0,-20 11,-30 33,-30l37 0z"/>
						<polygon style="fill: #b01a00;" points="4262,3724 4522,3884 3508,4485 3931,4746 4603,4349 4864,4510 3933,5067 2991,4485 "/>
						<polygon style="fill: #b01a00;" points="4273,5276 4013,5116 5026,4515 4603,4254 3931,4651 3671,4490 4601,3933 5544,4515 "/>
						</svg>