<svg xmlns="http://www.w3.org/2000/svg">

    <path id="search" stroke="null" fill="#464547"
          d="m23.126519,21.058347l-6.165571,-6.216799c-0.124662,-0.123027 -0.272698,-0.20679 -0.438914,-0.259142c1.046641,-1.481561 1.66995,-3.298175 1.66995,-5.258757c-0.002597,-5.025791 -4.046318,-9.101393 -9.030198,-9.101393c-4.989074,0 -9.032795,4.075602 -9.032795,9.104011c0,5.025791 4.043721,9.101393 9.032795,9.101393c1.945245,0 3.745052,-0.625606 5.220218,-1.683116c0.049345,0.164909 0.132453,0.31673 0.254518,0.442374l6.168168,6.214181c0.493453,0.494726 1.410238,0.374317 2.051727,-0.27223s0.760957,-1.573177 0.270101,-2.070521zm-13.964733,-5.941951c-3.171088,0 -5.747434,-2.594041 -5.747434,-5.792748c0,-3.196089 2.576346,-5.792748 5.747434,-5.792748c3.173685,0 5.747434,2.596659 5.747434,5.792748c-0.002597,3.198706 -2.576346,5.792748 -5.747434,5.792748z"/>

    <path id="email" fill="#464547" stroke="null"
          d="m24.124235,17.294349c0,0.464266 -0.149526,0.894663 -0.389056,1.273339l-7.656236,-7.481425l7.573227,-5.786811c0.294603,0.408312 0.472065,0.887942 0.472065,1.406243l0,10.588654zm-12.12421,-4.849679l10.5379,-8.052756c-0.432435,-0.206753 -0.919392,-0.333546 -1.44468,-0.333546l-18.18644,0c-0.525938,0 -1.013045,0.126793 -1.443731,0.333546l10.536951,8.052756zm2.937886,-0.487181l-2.439235,1.865184c-0.142679,0.108549 -0.32034,0.162757 -0.498652,0.162757c-0.178411,0 -0.356073,-0.054209 -0.498752,-0.162757l-2.439785,-1.865271l-7.753088,7.577054c0.464718,0.254633 1.009347,0.407177 1.598354,0.407177l18.18649,0c0.588907,0 1.133785,-0.152544 1.598354,-0.407177l-7.753687,-7.576967zm-14.589982,-6.65808c-0.294553,0.408312 -0.472165,0.887942 -0.472165,1.406286l0,10.588697c0,0.464266 0.148826,0.894663 0.389256,1.273339l7.655336,-7.482734l-7.572428,-5.785589z"/>

    <path id="facebook" stroke="null" fill="#cccccc"
          d="m18.3305,14.0085c0,0 0.53,-4.088 0.53,-4.088c0,0 -4.07,0 -4.07,0c0,0 0,-2.61 0,-2.61c0,-1.184 0.33,-1.99 2.037,-1.99c0,0 2.177,-0.001 2.177,-0.001c0,0 0,-3.656 0,-3.656c-0.377,-0.051 -1.669,-0.162 -3.172,-0.162c-3.138,0 -5.287,1.906 -5.287,5.404c0,0 0,3.015 0,3.015c0,0 -3.55,0 -3.55,0c0,0 0,4.088 0,4.088c0,0 3.55,0 3.55,0c0,0 0,10.49 0,10.49c0,0 4.245,0 4.245,0c0,0 0,-10.49 0,-10.49c0,0 3.54,0 3.54,0z"/>

    <path id="twitter" stroke="null" fill="#cccccc"
          d="m23.51,6.3275c-0.773,0.351 -1.604,0.588 -2.477,0.695c0.891,-0.547 1.575,-1.412 1.897,-2.443c-0.834,0.506 -1.757,0.874 -2.739,1.072c-0.787,-0.858 -1.907,-1.395 -3.148,-1.395c-2.382,0 -4.312,1.977 -4.312,4.415c0,0.346 0.038,0.683 0.111,1.006c-3.584,-0.184 -6.761,-1.942 -8.888,-4.613c-0.372,0.652 -0.584,1.411 -0.584,2.22c0,1.531 0.761,2.882 1.918,3.674c-0.707,-0.022 -1.372,-0.221 -1.953,-0.552c0,0.019 -0.001,0.037 -0.001,0.056c0,2.139 1.487,3.923 3.46,4.329c-0.362,0.1 -0.743,0.154 -1.136,0.154c-0.278,0 -0.548,-0.027 -0.812,-0.079c0.549,1.754 2.142,3.031 4.029,3.066c-1.476,1.184 -3.336,1.89 -5.356,1.89c-0.348,0 -0.691,-0.021 -1.029,-0.062c1.909,1.253 4.176,1.983 6.611,1.983c7.932,0 12.27,-6.726 12.27,-12.56c0,-0.192 -0.004,-0.381 -0.013,-0.571c0.843,-0.623 1.574,-1.4 2.152,-2.285z"/>

    <path id="gmail" stroke="null" fill="#cccccc"
          d="m19.80753,12.62469c0,0 0,2.639 0,2.639c0,0 -1.207,0 -1.207,0c0,0 0,-2.639 0,-2.639c0,0 -2.688,0 -2.688,0c0,0 0,-1.184 0,-1.184c0,0 2.688,0 2.688,0c0,0 0,-2.639 0,-2.639c0,0 1.207,0 1.207,0c0,0 0,2.639 0,2.639c0,0 2.688,0 2.688,0c0,0 0,1.184 0,1.184c0,0 -2.688,0 -2.688,0zm-6.912,-8.026c2.213,1.348 2.424,5.325 -0.598,6.785c-1.35,0.72 -0.941,1.358 0.043,1.968c6.067,3.7 2.169,8.969 -2.667,9.15c-0.08,-0.002 -0.156,-0.006 -0.235,-0.01c-10.311,-0.431 -5.094,-8.9 0,-8.044c0.171,0.029 0.342,0.069 0.512,0.118c-0.261,-0.297 -0.431,-0.669 -0.512,-1.113c-0.074,-0.406 -0.073,-0.873 0,-1.399c0,0 0.001,0 0.001,0c0,0 -0.001,0 -0.001,0c-5.489,1.606 -7.599,-7.901 0,-8.485c0.085,-0.007 0.17,-0.013 0.257,-0.017c1.707,-0.085 5.889,-0.043 5.889,-0.043c0,0 -0.513,0.922 -2.689,1.09zm-3.457,10.994c0,0 -0.075,0.003 -0.075,0.003c-2.179,0.106 -3.872,1.381 -3.784,2.847c0.086,1.411 1.791,2.486 3.859,2.471c0.082,-0.001 0.164,-0.002 0.247,-0.007c2.178,-0.106 3.872,-1.381 3.783,-2.847c-0.088,-1.45 -1.885,-2.544 -4.03,-2.467zm2.618,-8.417c-0.406,-1.485 -1.476,-2.557 -2.618,-2.762c-0.31,-0.056 -0.625,-0.048 -0.934,0.033c-1.445,0.38 -2.199,2.219 -1.683,4.107c0.406,1.485 1.476,2.557 2.617,2.762c0.311,0.056 0.626,0.049 0.935,-0.032c1.445,-0.382 2.199,-2.22 1.683,-4.108z"/>

</svg>